<mxfile host="app.diagrams.net" modified="2021-06-26T19:43:15.439Z" agent="5.0 (X11; Linux x86_64) AppleWebKit/537.36 (KHTML, like Gecko) Chrome/91.0.4472.114 Safari/537.36" etag="DXFaOTVVgHagGV6ga-r6" version="14.8.0" type="github">
  <diagram name="Page-1" id="58cdce13-f638-feb5-8d6f-7d28b1aa9fa0">
    <mxGraphModel dx="1386" dy="939" grid="1" gridSize="10" guides="1" tooltips="1" connect="1" arrows="1" fold="1" page="1" pageScale="1" pageWidth="1100" pageHeight="850" background="none" math="0" shadow="0">
      <root>
        <mxCell id="0" />
        <mxCell id="1" parent="0" />
        <mxCell id="OIYtAW53aJ4qiRj4OkRY-7" style="edgeStyle=orthogonalEdgeStyle;rounded=0;orthogonalLoop=1;jettySize=auto;html=1;exitX=0.5;exitY=1;exitDx=0;exitDy=0;" edge="1" parent="1" source="OIYtAW53aJ4qiRj4OkRY-1" target="OIYtAW53aJ4qiRj4OkRY-6">
          <mxGeometry relative="1" as="geometry" />
        </mxCell>
        <mxCell id="OIYtAW53aJ4qiRj4OkRY-17" style="edgeStyle=orthogonalEdgeStyle;rounded=0;orthogonalLoop=1;jettySize=auto;html=1;exitX=1;exitY=0.5;exitDx=0;exitDy=0;entryX=0;entryY=0;entryDx=15;entryDy=0;entryPerimeter=0;" edge="1" parent="1" source="OIYtAW53aJ4qiRj4OkRY-1" target="OIYtAW53aJ4qiRj4OkRY-11">
          <mxGeometry relative="1" as="geometry" />
        </mxCell>
        <mxCell id="OIYtAW53aJ4qiRj4OkRY-34" style="edgeStyle=orthogonalEdgeStyle;rounded=0;orthogonalLoop=1;jettySize=auto;html=1;exitX=1;exitY=0;exitDx=0;exitDy=0;" edge="1" parent="1" source="OIYtAW53aJ4qiRj4OkRY-1" target="OIYtAW53aJ4qiRj4OkRY-28">
          <mxGeometry relative="1" as="geometry" />
        </mxCell>
        <mxCell id="OIYtAW53aJ4qiRj4OkRY-1" value="Calibrando Sensores &lt;br&gt;de temperatura" style="html=1;align=center;verticalAlign=top;rounded=1;absoluteArcSize=1;arcSize=10;dashed=0;" vertex="1" parent="1">
          <mxGeometry x="360" y="160" width="140" height="40" as="geometry" />
        </mxCell>
        <mxCell id="OIYtAW53aJ4qiRj4OkRY-5" style="edgeStyle=orthogonalEdgeStyle;rounded=0;orthogonalLoop=1;jettySize=auto;html=1;exitX=0.5;exitY=1;exitDx=0;exitDy=0;entryX=0.5;entryY=0;entryDx=0;entryDy=0;" edge="1" parent="1" source="OIYtAW53aJ4qiRj4OkRY-4" target="OIYtAW53aJ4qiRj4OkRY-1">
          <mxGeometry relative="1" as="geometry" />
        </mxCell>
        <mxCell id="OIYtAW53aJ4qiRj4OkRY-4" value="" style="shape=ellipse;html=1;fillColor=#000000;fontSize=18;fontColor=#ffffff;" vertex="1" parent="1">
          <mxGeometry x="410" y="40" width="40" height="40" as="geometry" />
        </mxCell>
        <mxCell id="OIYtAW53aJ4qiRj4OkRY-9" style="edgeStyle=orthogonalEdgeStyle;rounded=0;orthogonalLoop=1;jettySize=auto;html=1;exitX=0;exitY=0.5;exitDx=0;exitDy=0;entryX=0;entryY=0.5;entryDx=0;entryDy=0;" edge="1" parent="1" source="OIYtAW53aJ4qiRj4OkRY-6" target="OIYtAW53aJ4qiRj4OkRY-1">
          <mxGeometry relative="1" as="geometry" />
        </mxCell>
        <mxCell id="OIYtAW53aJ4qiRj4OkRY-6" value="Stanby" style="html=1;align=center;verticalAlign=top;rounded=1;absoluteArcSize=1;arcSize=10;dashed=0;" vertex="1" parent="1">
          <mxGeometry x="360" y="650" width="140" height="40" as="geometry" />
        </mxCell>
        <mxCell id="OIYtAW53aJ4qiRj4OkRY-8" value="after(60seg) / pasarStanby()" style="text;html=1;align=center;verticalAlign=middle;resizable=0;points=[];autosize=1;strokeColor=none;" vertex="1" parent="1">
          <mxGeometry x="440" y="620" width="170" height="20" as="geometry" />
        </mxCell>
        <mxCell id="OIYtAW53aJ4qiRj4OkRY-10" value="after(2min)/ reIntentarCalibrar()" style="text;html=1;align=center;verticalAlign=middle;resizable=0;points=[];autosize=1;strokeColor=none;" vertex="1" parent="1">
          <mxGeometry x="220" y="230" width="180" height="20" as="geometry" />
        </mxCell>
        <mxCell id="OIYtAW53aJ4qiRj4OkRY-11" value="Encendido" style="shape=mxgraph.sysml.compState;align=left;verticalAlign=top;spacingTop=-3;spacingLeft=18;strokeWidth=1;recursiveResize=0;" vertex="1" parent="1">
          <mxGeometry x="770" y="200" width="490" height="590" as="geometry" />
        </mxCell>
        <mxCell id="OIYtAW53aJ4qiRj4OkRY-21" style="edgeStyle=orthogonalEdgeStyle;rounded=0;orthogonalLoop=1;jettySize=auto;html=1;exitX=0.5;exitY=1;exitDx=0;exitDy=0;entryX=0.5;entryY=0;entryDx=0;entryDy=0;" edge="1" parent="OIYtAW53aJ4qiRj4OkRY-11" source="OIYtAW53aJ4qiRj4OkRY-12" target="OIYtAW53aJ4qiRj4OkRY-20">
          <mxGeometry relative="1" as="geometry" />
        </mxCell>
        <mxCell id="OIYtAW53aJ4qiRj4OkRY-12" value="" style="shape=ellipse;html=1;fillColor=#000000;verticalLabelPosition=bottom;labelBackgroundColor=#ffffff;verticalAlign=top;" vertex="1" parent="OIYtAW53aJ4qiRj4OkRY-11">
          <mxGeometry x="180" y="50" width="20" height="20" as="geometry" />
        </mxCell>
        <mxCell id="OIYtAW53aJ4qiRj4OkRY-23" style="edgeStyle=orthogonalEdgeStyle;rounded=0;orthogonalLoop=1;jettySize=auto;html=1;exitX=0.5;exitY=1;exitDx=0;exitDy=0;entryX=0.5;entryY=0;entryDx=0;entryDy=0;" edge="1" parent="OIYtAW53aJ4qiRj4OkRY-11" source="OIYtAW53aJ4qiRj4OkRY-20" target="OIYtAW53aJ4qiRj4OkRY-22">
          <mxGeometry relative="1" as="geometry" />
        </mxCell>
        <mxCell id="OIYtAW53aJ4qiRj4OkRY-20" value="Calculando temperatura&lt;br&gt;ideal" style="html=1;align=center;verticalAlign=top;rounded=1;absoluteArcSize=1;arcSize=10;dashed=0;" vertex="1" parent="OIYtAW53aJ4qiRj4OkRY-11">
          <mxGeometry x="120" y="100" width="140" height="40" as="geometry" />
        </mxCell>
        <mxCell id="OIYtAW53aJ4qiRj4OkRY-26" style="edgeStyle=orthogonalEdgeStyle;rounded=0;orthogonalLoop=1;jettySize=auto;html=1;exitX=0.5;exitY=1;exitDx=0;exitDy=0;" edge="1" parent="OIYtAW53aJ4qiRj4OkRY-11" source="OIYtAW53aJ4qiRj4OkRY-22" target="OIYtAW53aJ4qiRj4OkRY-25">
          <mxGeometry relative="1" as="geometry" />
        </mxCell>
        <mxCell id="OIYtAW53aJ4qiRj4OkRY-22" value="Enciendo enfriadores" style="html=1;align=center;verticalAlign=top;rounded=1;absoluteArcSize=1;arcSize=10;dashed=0;" vertex="1" parent="OIYtAW53aJ4qiRj4OkRY-11">
          <mxGeometry x="120" y="200" width="140" height="40" as="geometry" />
        </mxCell>
        <mxCell id="OIYtAW53aJ4qiRj4OkRY-24" value="when(calculoTemp) / encenderEnfriadores()" style="text;html=1;align=center;verticalAlign=middle;resizable=0;points=[];autosize=1;strokeColor=none;" vertex="1" parent="OIYtAW53aJ4qiRj4OkRY-11">
          <mxGeometry x="135" y="160" width="250" height="20" as="geometry" />
        </mxCell>
        <mxCell id="OIYtAW53aJ4qiRj4OkRY-30" style="edgeStyle=orthogonalEdgeStyle;rounded=0;orthogonalLoop=1;jettySize=auto;html=1;exitX=0.5;exitY=1;exitDx=0;exitDy=0;entryX=0.5;entryY=0;entryDx=0;entryDy=0;" edge="1" parent="OIYtAW53aJ4qiRj4OkRY-11" source="OIYtAW53aJ4qiRj4OkRY-25" target="OIYtAW53aJ4qiRj4OkRY-29">
          <mxGeometry relative="1" as="geometry" />
        </mxCell>
        <mxCell id="OIYtAW53aJ4qiRj4OkRY-25" value="Frio-Nivel-1" style="html=1;align=center;verticalAlign=top;rounded=1;absoluteArcSize=1;arcSize=10;dashed=0;" vertex="1" parent="OIYtAW53aJ4qiRj4OkRY-11">
          <mxGeometry x="120" y="300" width="140" height="40" as="geometry" />
        </mxCell>
        <mxCell id="OIYtAW53aJ4qiRj4OkRY-27" value="when(tempIdeal) / pasarANivel1" style="text;html=1;align=center;verticalAlign=middle;resizable=0;points=[];autosize=1;strokeColor=none;" vertex="1" parent="OIYtAW53aJ4qiRj4OkRY-11">
          <mxGeometry x="155" y="260" width="190" height="20" as="geometry" />
        </mxCell>
        <mxCell id="OIYtAW53aJ4qiRj4OkRY-29" value="Apagando enfriadores" style="html=1;align=center;verticalAlign=top;rounded=1;absoluteArcSize=1;arcSize=10;dashed=0;" vertex="1" parent="OIYtAW53aJ4qiRj4OkRY-11">
          <mxGeometry x="120" y="400" width="140" height="40" as="geometry" />
        </mxCell>
        <mxCell id="OIYtAW53aJ4qiRj4OkRY-31" value="when(pressBotonDescongelar) / descongelar" style="text;html=1;align=center;verticalAlign=middle;resizable=0;points=[];autosize=1;strokeColor=none;" vertex="1" parent="OIYtAW53aJ4qiRj4OkRY-11">
          <mxGeometry x="190" y="350" width="260" height="20" as="geometry" />
        </mxCell>
        <mxCell id="OIYtAW53aJ4qiRj4OkRY-33" value="when(estaDescongelado) / apagar()" style="text;html=1;align=center;verticalAlign=middle;resizable=0;points=[];autosize=1;strokeColor=none;" vertex="1" parent="OIYtAW53aJ4qiRj4OkRY-11">
          <mxGeometry x="270" y="420" width="210" height="20" as="geometry" />
        </mxCell>
        <mxCell id="OIYtAW53aJ4qiRj4OkRY-28" value="Apagado" style="html=1;align=center;verticalAlign=top;rounded=1;absoluteArcSize=1;arcSize=10;dashed=0;" vertex="1" parent="1">
          <mxGeometry x="1350" y="510" width="140" height="40" as="geometry" />
        </mxCell>
        <mxCell id="OIYtAW53aJ4qiRj4OkRY-32" style="edgeStyle=orthogonalEdgeStyle;rounded=0;orthogonalLoop=1;jettySize=auto;html=1;exitX=1;exitY=0.5;exitDx=0;exitDy=0;entryX=0.25;entryY=1;entryDx=0;entryDy=0;" edge="1" parent="1" source="OIYtAW53aJ4qiRj4OkRY-29" target="OIYtAW53aJ4qiRj4OkRY-28">
          <mxGeometry relative="1" as="geometry" />
        </mxCell>
        <mxCell id="OIYtAW53aJ4qiRj4OkRY-35" value="when(pressBotonDescongelar) / apagar()" style="text;html=1;align=center;verticalAlign=middle;resizable=0;points=[];autosize=1;strokeColor=none;" vertex="1" parent="1">
          <mxGeometry x="685" y="110" width="240" height="20" as="geometry" />
        </mxCell>
        <mxCell id="OIYtAW53aJ4qiRj4OkRY-36" style="edgeStyle=orthogonalEdgeStyle;rounded=0;orthogonalLoop=1;jettySize=auto;html=1;exitX=0;exitY=0.5;exitDx=0;exitDy=0;entryX=1;entryY=1;entryDx=0;entryDy=0;" edge="1" parent="1" source="OIYtAW53aJ4qiRj4OkRY-25" target="OIYtAW53aJ4qiRj4OkRY-1">
          <mxGeometry relative="1" as="geometry" />
        </mxCell>
        <mxCell id="OIYtAW53aJ4qiRj4OkRY-37" value="after(6horas) / calibrar()" style="text;html=1;align=center;verticalAlign=middle;resizable=0;points=[];autosize=1;strokeColor=none;" vertex="1" parent="1">
          <mxGeometry x="520" y="500" width="140" height="20" as="geometry" />
        </mxCell>
      </root>
    </mxGraphModel>
  </diagram>
</mxfile>
